# xmcd
#
# Track frame offsets:
#	150
#	17062
#	29162
#	40400
#	52050
#	65225
#	77950
#	87512
#	99075
#	110675
#	130425
#	144025
#	156537
#	166150
#	179075
#	189662
#
# Disc length: 2651 seconds
# Revision: 3
# Processed by: cddbd v1.5.2PL0 Copyright (c) Steve Scherf et al.
# Submitted via: dBpowerAMP V12.0
#
DISCID=ed0a5910
DTITLE=Various Artist - Country - The Sixties
DYEAR=1993
DGENRE=Country
TTITLE0=Johnny Cash - Ghost Rider
TTITLE1=Tammy Wynette - Stand by Your Man
TTITLE2=Dolly Parton - Dumb Blonde
TTITLE3=Ray Price - Heartache by the Number
TTITLE4=Freddy Weller - Games People Play
TTITLE5=Johnny Horton - North Alaska
TTITLE6=Jerry Reed - Love Don't Grow on Trees
TTITLE7=Gene Autry - Don't Fence Me in
TTITLE8=David Huston - Too Many Times
TTITLE9=Marty Robbins - El Paso
TTITLE10=Jimmy Dean - Big Bad John
TTITLE11=Lefty Frizzell - Release Me
TTITLE12=Lester Flatt and Earl Scruggs - Foggy Mountain Breakdown
TTITLE13=Carl Perkins - Honey Don't
TTITLE14=The Statler Brothers - Flowers on the Wall
TTITLE15=The Byrds - Ballad of Easy Rider
EXTD=
EXTT0=
EXTT1=
EXTT2=
EXTT3=
EXTT4=
EXTT5=
EXTT6=
EXTT7=
EXTT8=
EXTT9=
EXTT10=
EXTT11=
EXTT12=
EXTT13=
EXTT14=
EXTT15=
PLAYORDER=
